<svg xmlns="http://www.w3.org/2000/svg" width="19" height="13" viewBox="0 0 19 13">
    <defs>
        <style>
            .cls-1{fill:#ff4e00}
        </style>
    </defs>
    <g id="list-text" transform="translate(-.001 -80)">
        <g id="Group_988" transform="translate(3.457 80)">
            <g id="Group_987">
                <path id="Path_264" d="M109.332 80H97.376a1.2 1.2 0 0 0 0 2.391h11.957a1.2 1.2 0 0 0 0-2.391z" class="cls-1" transform="translate(-96.18 -80)"/>
            </g>
        </g>
        <g id="Group_990" transform="translate(.001 80.005)">
            <g id="Group_989">
                <path id="Path_265" d="M2.4 81.325a1.2 1.2 0 0 0-2.391 0 1.018 1.018 0 0 0 0 .233 1.078 1.078 0 0 0 .066.227 1.387 1.387 0 0 0 .114.2 1.094 1.094 0 0 0 .149.185 1.058 1.058 0 0 0 .179.143.974.974 0 0 0 .2.114.987.987 0 0 0 .251.09 1.049 1.049 0 0 0 .233 0 1.2 1.2 0 0 0 .843-.347 1.094 1.094 0 0 0 .149-.185 1.387 1.387 0 0 0 .114-.2 1.11 1.11 0 0 0 .09-.227 1.018 1.018 0 0 0 .003-.233z" class="cls-1" transform="translate(-.001 -80.135)"/>
            </g>
        </g>
        <g id="Group_992" transform="translate(.007 85.306)">
            <g id="Group_991">
                <path id="Path_266" d="M2.571 225.325a1.022 1.022 0 0 0 0-.233.969.969 0 0 0-.09-.221 1.2 1.2 0 0 0-.114-.209.861.861 0 0 0-.149-.179 1.2 1.2 0 0 0-2.039.843 1.193 1.193 0 0 0 .2.664 1.149 1.149 0 0 0 .155.179.873.873 0 0 0 .179.149.97.97 0 0 0 .2.114 1.017 1.017 0 0 0 .227.066.992.992 0 0 0 .233.024 1.018 1.018 0 0 0 .233 0 .971.971 0 0 0 .221-.066 1 1 0 0 0 .209-.114.873.873 0 0 0 .179-.149.873.873 0 0 0 .149-.179.961.961 0 0 0 .114-.2 1.011 1.011 0 0 0 .09-.251.989.989 0 0 0 .003-.238z" class="cls-1" transform="translate(-.18 -224.135)"/>
            </g>
        </g>
        <g id="Group_994" transform="translate(.007 90.607)">
            <g id="Group_993">
                <path id="Path_267" d="M2.569 369.325a1.026 1.026 0 0 0 0-.233 1.018 1.018 0 0 0-.09-.227 1.388 1.388 0 0 0-.114-.2.872.872 0 0 0-.149-.179 1.2 1.2 0 0 0-1.686 0 .872.872 0 0 0-.149.179 1.388 1.388 0 0 0-.114.2.98.98 0 0 0-.066.227 1.027 1.027 0 0 0-.024.233 1.2 1.2 0 0 0 .353.843.872.872 0 0 0 .179.149.97.97 0 0 0 .2.114 1.017 1.017 0 0 0 .227.066.992.992 0 0 0 .233.024 1.017 1.017 0 0 0 .233 0 .97.97 0 0 0 .221-.066 1 1 0 0 0 .209-.114.872.872 0 0 0 .179-.149.874.874 0 0 0 .149-.179.958.958 0 0 0 .114-.2 1.015 1.015 0 0 0 .09-.251.989.989 0 0 0 .005-.237z" class="cls-1" transform="translate(-.178 -368.135)"/>
            </g>
        </g>
        <g id="Group_996" transform="translate(3.457 85.301)">
            <g id="Group_995">
                <path id="Path_268" d="M110.528 224H97.376a1.2 1.2 0 0 0 0 2.391h13.152a1.2 1.2 0 0 0 0-2.391z" class="cls-1" transform="translate(-96.18 -224)"/>
            </g>
        </g>
        <g id="Group_998" transform="translate(3.539 90.602)">
            <g id="Group_997">
                <path id="Path_269" d="M105.147 368h-7.771a1.2 1.2 0 1 0 0 2.391h7.772a1.2 1.2 0 1 0 0-2.391z" class="cls-1" transform="translate(-96.18 -368)"/>
            </g>
        </g>
    </g>
</svg>
